<svg width="66" height="25" viewBox="0 0 66 25" fill="none" xmlns="http://www.w3.org/2000/svg">
<path d="M10.3887 12.2051C10.4355 12.2402 10.5703 12.2578 10.793 12.2578C11.0156 12.2578 11.1855 12.1699 11.3027 11.9941C11.4199 11.8184 11.4785 11.5312 11.4785 11.1328V9.79688C11.4785 9.375 11.4258 9.07617 11.3203 8.90039C11.2266 8.71289 11.0625 8.61914 10.8281 8.61914C10.6055 8.61914 10.4531 8.64258 10.3711 8.68945C10.3828 8.74805 10.3887 8.84766 10.3887 8.98828V12.2051ZM10.8281 20.1504V22.8398C10.3125 23.2734 9.58594 23.6309 8.64844 23.9121C7.71094 24.1816 6.73242 24.3164 5.71289 24.3164C4.25977 24.3164 3.07031 24.0352 2.14453 23.4727C1.08984 22.8281 0.5625 21.8965 0.5625 20.6777V3.97852C0.5625 3.60352 0.814453 3.22852 1.31836 2.85352C1.83398 2.47852 2.54297 2.13867 3.44531 1.83398C5.37891 1.17773 7.58789 0.849609 10.0723 0.849609C13.5059 0.849609 16.2422 1.70508 18.2812 3.41602C20.3203 5.12695 21.3398 7.42969 21.3398 10.3242C21.3398 13.207 20.4199 15.4512 18.5801 17.0566C16.8105 18.5801 14.3555 19.3418 11.2148 19.3418C10.5 19.3418 9.73242 19.2598 8.91211 19.0957C8.10352 18.9199 7.55859 18.7676 7.27734 18.6387C7.18359 18.7324 7.13672 18.8613 7.13672 19.0254C7.13672 19.623 8.36719 19.998 10.8281 20.1504ZM33.9332 11.8711C33.9332 10.6992 33.8805 9.89648 33.775 9.46289C33.6696 9.01758 33.4762 8.79492 33.195 8.79492C33.0192 8.79492 32.861 8.85352 32.7203 8.9707C32.7438 9.18164 32.7789 9.46289 32.8258 9.81445C32.8727 10.166 32.8961 10.916 32.8961 12.0645V13.207C32.8961 14.0039 32.8785 14.584 32.8434 14.9473C32.8082 15.3105 32.7789 15.6211 32.7555 15.8789C32.7438 16.0195 32.7321 16.1602 32.7203 16.3008C32.861 16.418 33.0192 16.4766 33.195 16.4766C33.4762 16.4766 33.6696 16.2598 33.775 15.8262C33.8805 15.3809 33.9332 14.5723 33.9332 13.4004V11.8711ZM33.2301 24.5625C31.1442 24.5625 29.2282 24.1348 27.4821 23.2793C25.7477 22.4121 24.3473 21.0938 23.2809 19.3242C22.2145 17.543 21.6813 15.3223 21.6813 12.6621C21.6813 8.80664 22.8414 5.79492 25.1618 3.62695C27.2243 1.7168 29.8785 0.761719 33.1246 0.761719C36.652 0.761719 39.441 1.85742 41.4918 4.04883C43.5543 6.22852 44.5856 9.09961 44.5856 12.6621C44.5856 16.623 43.484 19.6465 41.2809 21.7324C39.277 23.6191 36.5934 24.5625 33.2301 24.5625ZM54.9465 12.2051C54.9934 12.2402 55.1282 12.2578 55.3508 12.2578C55.5735 12.2578 55.7434 12.1699 55.8606 11.9941C55.9778 11.8184 56.0364 11.5312 56.0364 11.1328V9.79688C56.0364 9.375 55.9837 9.07617 55.8782 8.90039C55.7844 8.71289 55.6204 8.61914 55.386 8.61914C55.1633 8.61914 55.011 8.64258 54.929 8.68945C54.9407 8.74805 54.9465 8.84766 54.9465 8.98828V12.2051ZM55.386 20.1504V22.8398C54.8704 23.2734 54.1438 23.6309 53.2063 23.9121C52.2688 24.1816 51.2903 24.3164 50.2708 24.3164C48.8176 24.3164 47.6282 24.0352 46.7024 23.4727C45.6477 22.8281 45.1204 21.8965 45.1204 20.6777V3.97852C45.1204 3.60352 45.3723 3.22852 45.8762 2.85352C46.3919 2.47852 47.1008 2.13867 48.0032 1.83398C49.9368 1.17773 52.1458 0.849609 54.6301 0.849609C58.0637 0.849609 60.8001 1.70508 62.8391 3.41602C64.8782 5.12695 65.8977 7.42969 65.8977 10.3242C65.8977 13.207 64.9778 15.4512 63.138 17.0566C61.3684 18.5801 58.9133 19.3418 55.7727 19.3418C55.0579 19.3418 54.2903 19.2598 53.47 19.0957C52.6614 18.9199 52.1165 18.7676 51.8352 18.6387C51.7415 18.7324 51.6946 18.8613 51.6946 19.0254C51.6946 19.623 52.9251 19.998 55.386 20.1504Z" fill="white"/>
</svg>
