<svg width="24" height="24" viewBox="0 0 24 24" fill="none" xmlns="http://www.w3.org/2000/svg">
<g clip-path="url(#clip0_405_1155)">
<path d="M11.9997 -5.61527e-06C14.777 -0.0007995 17.4687 0.961488 19.616 2.72288C21.7634 4.48427 23.2335 6.93576 23.7759 9.65961C24.3183 12.3835 23.8994 15.2111 22.5906 17.6607C21.2818 20.1103 19.164 22.0303 16.5983 23.0935C14.0325 24.1566 11.1774 24.2972 8.51961 23.4912C5.8618 22.6853 3.5657 20.9826 2.02259 18.6734C0.479467 16.3642 -0.215181 13.5914 0.0570142 10.8274C0.329209 8.06349 1.5514 5.47943 3.51533 3.51562C4.6281 2.39944 5.95053 1.51424 7.40658 0.910899C8.86264 0.307561 10.4236 -0.00200709 11.9997 -5.61527e-06ZM12.7946 16.0332C13.0101 16.1992 13.1682 16.4284 13.2469 16.6888C13.3255 16.9492 13.3206 17.2277 13.2329 17.4852C13.1453 17.7426 12.9792 17.9662 12.758 18.1246C12.5369 18.2829 12.2717 18.368 11.9997 18.368C11.7277 18.368 11.4625 18.2829 11.2414 18.1246C11.0202 17.9662 10.8541 17.7426 10.7665 17.4852C10.6788 17.2277 10.6739 16.9492 10.7526 16.6888C10.8312 16.4284 10.9893 16.1992 11.2048 16.0332V13.4023H8.26337V16.0332C8.47886 16.1992 8.637 16.4284 8.7156 16.6888C8.7942 16.9492 8.78933 17.2277 8.70167 17.4852C8.61401 17.7426 8.44795 17.9662 8.22679 18.1246C8.00562 18.2829 7.74045 18.368 7.46845 18.368C7.19645 18.368 6.93128 18.2829 6.71012 18.1246C6.48895 17.9662 6.32289 17.7426 6.23523 17.4852C6.14757 17.2277 6.1427 16.9492 6.2213 16.6888C6.2999 16.4284 6.45804 16.1992 6.67353 16.0332V9.01757C6.45804 8.8516 6.2999 8.62234 6.2213 8.36195C6.1427 8.10156 6.14757 7.8231 6.23523 7.56561C6.32289 7.30813 6.48895 7.08455 6.71012 6.92621C6.93128 6.76788 7.19645 6.68274 7.46845 6.68274C7.74045 6.68274 8.00562 6.76788 8.22679 6.92621C8.44795 7.08455 8.61401 7.30813 8.70167 7.56561C8.78933 7.8231 8.7942 8.10156 8.7156 8.36195C8.637 8.62234 8.47886 8.8516 8.26337 9.01757V11.8125H11.2048V9.01757C10.9893 8.8516 10.8312 8.62234 10.7526 8.36195C10.6739 8.10156 10.6788 7.8231 10.7665 7.56561C10.8541 7.30813 11.0202 7.08455 11.2414 6.92621C11.4625 6.76788 11.7277 6.68274 11.9997 6.68274C12.2717 6.68274 12.5369 6.76788 12.758 6.92621C12.9792 7.08455 13.1453 7.30813 13.2329 7.56561C13.3206 7.8231 13.3255 8.10156 13.2469 8.36195C13.1682 8.62234 13.0101 8.8516 12.7946 9.01757V11.8125H15.736V9.01757C15.5205 8.8516 15.3624 8.62234 15.2838 8.36195C15.2052 8.10156 15.2101 7.8231 15.2977 7.56561C15.3854 7.30813 15.5515 7.08455 15.7726 6.92621C15.9938 6.76788 16.259 6.68274 16.531 6.68274C16.8029 6.68274 17.0681 6.76788 17.2893 6.92621C17.5104 7.08455 17.6765 7.30813 17.7642 7.56561C17.8518 7.8231 17.8567 8.10156 17.7781 8.36195C17.6995 8.62234 17.5414 8.8516 17.3259 9.01757V12.5C17.3279 12.5338 17.3279 12.5677 17.3259 12.6016C17.3259 12.8124 17.2421 13.0146 17.093 13.1637C16.944 13.3127 16.7418 13.3965 16.531 13.3965H12.7946V16.0332ZM19.2399 4.75195C17.5632 3.07656 15.3575 2.03433 12.9985 1.80282C10.6395 1.57131 8.27323 2.16484 6.30278 3.4823C4.33234 4.79976 2.87962 6.75965 2.19211 9.02806C1.50461 11.2965 1.62485 13.7331 2.53236 15.9228C3.43987 18.1125 5.0785 19.9198 7.16909 21.0369C9.25968 22.1539 11.6729 22.5116 13.9976 22.049C16.3223 21.5863 18.4147 20.332 19.9184 18.4996C21.422 16.6673 22.2438 14.3703 22.2438 12C22.2467 10.654 21.9835 9.32079 21.4693 8.07691C20.9551 6.83303 20.2001 5.70305 19.2477 4.75195H19.2399Z" fill="#0344A3"/>
</g>
<defs>
<clipPath id="clip0_405_1155">
<rect width="24" height="24" fill="white"/>
</clipPath>
</defs>
</svg>
